<svg xmlns="http://www.w3.org/2000/svg" viewBox="0 0 512 512">
  
  <rect x="3" y="3" width="506" height="506" rx="114" fill="#ffffff" stroke="#cbd5e1" stroke-width="6"/>
  <path d="M145.41 357.34 A150 150 0 0 1 106.96 239.02" fill="none" stroke="#0ea5e9" stroke-width="60"/>
  <path d="M109.01 226.09 A150 150 0 0 1 182.14 125.45" fill="none" stroke="#10b981" stroke-width="60"/>
  <path d="M193.80 119.51 A150 150 0 0 1 318.20 119.51" fill="none" stroke="#eab308" stroke-width="60"/>
  <path d="M329.86 125.45 A150 150 0 0 1 402.99 226.09" fill="none" stroke="#f97316" stroke-width="60"/>
  <path d="M405.04 239.02 A150 150 0 0 1 366.59 357.34" fill="none" stroke="#ef4444" stroke-width="60"/>
  <line x1="256" y1="256" x2="349.61" y2="194.51" stroke="#1e3a8a" stroke-width="30" stroke-linecap="round"/>
  <circle cx="256" cy="256" r="42" fill="#1e3a8a"/>
  <circle cx="256" cy="256" r="17" fill="#ffffff"/>
</svg>
